<?xml version="1.0" standalone="no"?>
<!DOCTYPE svg PUBLIC "-//W3C//DTD SVG 20010904//EN"
 "http://www.w3.org/TR/2001/REC-SVG-20010904/DTD/svg10.dtd">
<svg version="1.0" xmlns="http://www.w3.org/2000/svg"
 width="343.000000pt" height="328.000000pt" viewBox="0 0 343.000000 328.000000"
 preserveAspectRatio="xMidYMid meet">

<g transform="translate(0.000000,328.000000) scale(0.100000,-0.100000)"
fill="#000000" stroke="none">
<path d="M2041 3032 c-13 -24 -43 -143 -38 -148 2 -3 10 16 17 41 11 40 16 45
41 45 37 0 53 45 24 67 -25 17 -32 17 -44 -5z"/>
<path d="M2191 2911 c-14 -24 -5 -31 27 -21 74 22 84 40 22 40 -28 0 -42 -5
-49 -19z"/>
<path d="M1928 2680 c-7 -50 -6 -55 17 -47 10 4 15 19 14 44 0 30 -2 34 -8 18
-8 -19 -9 -18 -13 5 -3 19 -5 14 -10 -20z"/>
<path d="M2084 2663 c-4 -19 -4 -36 -1 -39 9 -10 37 28 37 50 0 36 -29 27 -36
-11z"/>
<path d="M2251 2634 c0 -11 3 -14 6 -6 3 7 2 16 -1 19 -3 4 -6 -2 -5 -13z"/>
<path d="M2282 2625 c12 -13 115 -27 240 -34 130 -7 140 -9 211 -44 132 -65
216 -179 237 -322 15 -105 13 -430 -2 -442 -7 -6 -56 -20 -108 -33 -112 -27
-114 -28 -100 -45 8 -10 8 -15 0 -20 -6 -4 -140 -4 -298 0 -281 6 -288 6 -314
-14 -41 -33 -60 -101 -65 -236 -4 -92 -1 -136 11 -185 29 -114 51 -125 299
-146 225 -20 377 -13 482 20 l74 23 3 -101 c2 -55 0 -164 -3 -241 -7 -174 -27
-224 -121 -309 -42 -39 -59 -60 -54 -71 5 -15 9 -14 35 4 38 27 84 80 115 133
43 73 55 147 63 382 l8 219 65 36 c51 29 66 43 71 66 8 38 11 423 3 451 -5 21
-6 21 -97 -6 -90 -27 -208 -48 -195 -35 3 4 40 15 81 26 41 10 93 27 116 38
l43 19 -49 8 c-44 9 -48 11 -43 34 3 14 5 111 5 215 0 153 -4 203 -19 258 -45
164 -188 299 -349 327 -141 24 -361 40 -345 25z m534 -1152 c-9 -157 -25 -181
-26 -38 0 116 6 155 23 155 7 0 8 -39 3 -117z m-436 -8 c40 -21 56 -75 38
-130 -34 -103 -168 -72 -168 39 0 82 62 126 130 91z"/>
<path d="M1012 2090 c0 -19 2 -27 5 -17 2 9 2 25 0 35 -3 9 -5 1 -5 -18z"/>
<path d="M713 1823 c15 -2 39 -2 55 0 15 2 2 4 -28 4 -30 0 -43 -2 -27 -4z"/>
<path d="M826 1812 c-2 -4 30 -6 72 -4 117 4 127 9 25 11 -50 0 -94 -2 -97 -7z"/>
<path d="M1135 1800 c61 -4 189 -10 285 -13 140 -4 153 -4 65 3 -60 4 -189 10
-285 13 -140 4 -153 4 -65 -3z"/>
<path d="M1648 1773 c18 -2 45 -2 60 0 15 2 0 4 -33 4 -33 0 -45 -2 -27 -4z"/>
<path d="M857 1421 c129 -87 238 -239 279 -391 26 -97 25 -265 -3 -355 -38
-121 -100 -209 -202 -285 l-34 -26 169 -22 c93 -12 347 -45 564 -72 217 -27
412 -52 433 -55 37 -5 53 9 20 18 -17 4 -17 5 0 6 9 0 17 7 17 15 0 20 -8 22
-225 51 -220 30 -333 52 -358 70 -16 11 -16 17 -3 71 17 74 16 190 -2 186 -7
-1 -16 6 -19 15 -4 10 -15 24 -25 31 -10 7 -18 21 -18 30 0 10 -9 25 -20 35
-11 9 -25 37 -32 62 -7 25 -16 45 -20 45 -4 0 -10 17 -14 38 -4 20 -15 54 -26
75 -10 20 -16 37 -12 37 4 0 2 6 -3 13 -19 24 -45 108 -39 124 6 14 26 15 174
10 202 -8 184 5 -38 27 -85 9 -161 16 -168 16 -7 0 -56 45 -110 99 -111 114
-188 158 -289 168 l-58 6 62 -42z"/>
<path d="M276 1239 c-80 -94 -111 -197 -103 -339 9 -164 74 -297 191 -392 78
-62 108 -69 48 -9 -132 128 -222 344 -208 497 7 81 36 163 80 224 39 55 33 68
-8 19z"/>
<path d="M600 774 c-47 -20 -98 -40 -113 -46 -34 -13 -30 -33 7 -33 l27 1 -22
-17 -22 -16 44 -77 c23 -42 46 -76 50 -76 6 0 86 134 119 200 13 24 12 25 -7
8 -27 -24 -33 -23 -33 8 0 22 -3 24 -22 18 -13 -3 -35 -13 -50 -21 -51 -25
-29 -5 30 28 122 69 120 77 -8 23z"/>
<path d="M944 468 l-19 -23 23 19 c21 18 27 26 19 26 -2 0 -12 -10 -23 -22z"/>
<path d="M350 420 c74 -66 190 -110 294 -110 64 0 154 28 196 61 20 15 13 14
-33 -7 -137 -61 -288 -45 -421 44 -63 43 -74 46 -36 12z"/>
<path d="M884 408 l-19 -23 23 19 c21 18 27 26 19 26 -2 0 -12 -10 -23 -22z"/>
</g>
</svg>
